<?xml version="1.0" encoding="utf-8" ?>
<svg baseProfile="full" height="338" version="1.1" width="730" xmlns="http://www.w3.org/2000/svg" xmlns:ev="http://www.w3.org/2001/xml-events" xmlns:xlink="http://www.w3.org/1999/xlink"><defs /><polygon fill="#008bcc" points="298,47 296,49 296,134 294,136 206,136 206,137 205,138 205,220 206,221 294,221 296,223 296,309 298,311 379,311 380,310 380,240 381,239 381,235 380,234 380,222 381,221 381,216 380,215 380,211 379,211 378,210 370,210 369,211 369,298 368,299 310,299 309,298 309,211 307,209 306,209 305,208 304,209 221,209 219,207 219,150 220,149 307,149 309,147 309,61 311,59 367,59 369,61 369,147 371,149 379,149 379,148 380,147 380,48 379,47" stroke="#008bcc" /><text fill="#008bcc" font-family="Arial" font-size="48px" font-weight="bold" x="379.6" y="175.76000000000002">NAHIP</text><text fill="#008bcc" font-family="Arial" font-size="20px" x="379.6" y="195.76000000000002">Native American</text><text fill="#008bcc" font-family="Arial" font-size="20px" x="379.6" y="215.76000000000002">Health Insurance Program</text></svg>